# xmcd
#
# Track frame offsets: 
#        150
#        16035
#        27135
#        38300
#        49735
#        62819
#        74819
#        87515
#        102033
#        114419
#        131730
#        146780
#        163218
#        178507
#
# Disc length: 2561 seconds
#
# Revision: 0
# Processed by: cddbd v1.5.1PL2 Copyright (c) Steve Scherf et al.
# Submitted via: ExactAudioCopy v0.95b3
#
DISCID=bd09ff0e
DTITLE=Edson and Hudson - O Bailão 
DYEAR=2006
DGENRE=Country
TTITLE0=Entra na Arena
TTITLE1=Cervejaria
TTITLE2=Festa Louca
TTITLE3=Zoião(com Rionegro and Solimões)
TTITLE4=Me Bate, Me Xinga
TTITLE5=Mulher e Cerveja e Viola
TTITLE6=Pagode em Brasilia - Pagode A Coisa Tá Feia
TTITLE7=Chora, Viola
TTITLE8=Sapateia, Galera
TTITLE9=Fogo do Desejo
TTITLE10=Anjo Loiro
TTITLE11=Rabo-de-Saia
TTITLE12=O Bicho Vai Pegar
TTITLE13=Zoião(estúdio)
EXTD=
EXTT0=
EXTT1=
EXTT2=
EXTT3=
EXTT4=
EXTT5=
EXTT6=
EXTT7=
EXTT8=
EXTT9=
EXTT10=
EXTT11=
EXTT12=
EXTT13=
PLAYORDER=
